<svg xmlns="http://www.w3.org/2000/svg" viewBox="0 0 89.06 97.9"><g data-name="Layer 2"><path d="M40.1 97.9v-3a46 46 0 1 0 0-91.9V0a49 49 0 1 1 0 97.9z" fill="#16d8d8"/><path d="M40.1 89.06v-3A37.11 37.11 0 1 0 3 49H0a40.11 40.11 0 1 1 40.1 40.06z" fill="#feca7a"/><path d="M40.1 81.06A32.14 32.14 0 0 1 8 49h3a29.11 29.11 0 1 0 29.1-29.1v-3a32.11 32.11 0 1 1 0 64.21z" fill="#f79663"/><path d="M40.1 72.09v-3A20.14 20.14 0 1 0 20 49h-3a23.15 23.15 0 1 1 23.1 23.09z" fill="#d84774"/><path d="M40.1 63.66A14.73 14.73 0 0 1 25.4 49h3a11.71 11.71 0 1 0 11.7-11.76v-3a14.71 14.71 0 1 1 0 29.42z" fill="#00acb3"/></g></svg>
