<svg xmlns="http://www.w3.org/2000/svg" viewBox="0 0 94 93.98"><defs><style>.cls-1{fill:#d1d3d4}</style></defs><g id="Layer_2" data-name="Layer 2"><g id="OBJECTS"><path class="cls-1" d="M48.78 74.39a29.19 29.19 0 1 1 20.63-8.55 29 29 0 0 1-20.63 8.55zm0-55.37a26.19 26.19 0 1 0 18.51 44.7A26.19 26.19 0 0 0 48.78 19z"/><path class="cls-1" d="M48.61 59.15a13.78 13.78 0 1 1 9.74-4 13.68 13.68 0 0 1-9.74 4zm0-24.55A10.78 10.78 0 1 0 56.23 53a10.77 10.77 0 0 0-7.62-18.4z"/><path d="M48.61 61.15a15.78 15.78 0 1 1 11.16-26.94c.23.24.45.47.66.71l-5.25 4.63c-.11-.13-.24-.26-.37-.39a8.78 8.78 0 1 0 2.55 5.52l7-.54a15.77 15.77 0 0 1-15.73 17z" fill="#3ebfb4"/><path class="cls-1" d="M48.78 90.4a45.19 45.19 0 1 1 32-13.22 45.06 45.06 0 0 1-32 13.22zm0-87.4a42.2 42.2 0 1 0 29.85 12.35A42.05 42.05 0 0 0 48.78 3z"/><path d="M48.78 94a48.78 48.78 0 0 1-34.51-83.3l7.78 7.77A37.8 37.8 0 0 0 75.5 71.93l7.78 7.78A48.65 48.65 0 0 1 48.78 94z" fill="#f79663"/><path d="M48.78 77.39a32.19 32.19 0 1 1 6-63.82l-1.67 8.85a23.19 23.19 0 1 0 18.44 27.12l8.85 1.68a32.19 32.19 0 0 1-31.62 26.17z" fill="#d84774"/></g></g></svg>
