<svg xmlns="http://www.w3.org/2000/svg" viewBox="0 0 101.6 101.6"><defs><style>.cls-1{fill:#d1d3d4}</style></defs><g id="Layer_2" data-name="Layer 2"><g id="OBJECTS"><path class="cls-1" d="M50.8 95.6A44.85 44.85 0 0 1 6 50.8h3a41.85 41.85 0 0 0 41.8 41.8z"/><path d="M50.8 101.6v-15A35.8 35.8 0 1 0 15 50.8H0a50.8 50.8 0 1 1 50.8 50.8z" fill="#00acb3"/><path d="M50.8 101.6v-15a35.8 35.8 0 1 0-30.27-54.93l-12.67-8a50.8 50.8 0 1 1 42.94 78z" fill="#f79663"/><path d="M50.8 101.6v-15a35.81 35.81 0 0 0 10.27-70.11l4.29-14.37A50.81 50.81 0 0 1 50.8 101.6z" fill="#d84774"/><path class="cls-1" d="M50.8 76.38A25.59 25.59 0 1 1 76.39 50.8 25.61 25.61 0 0 1 50.8 76.38zm0-50.17A24.59 24.59 0 1 0 75.39 50.8 24.62 24.62 0 0 0 50.8 26.21z"/><path class="cls-1" d="M50.83 78.1v-2h1l.08 2zm-3.13-.17l-1-.14.3-2 1 .13zm7.3-.15l-.3-2c.32 0 .63-.1 1-.16l.38 2c-.4.05-.75.11-1.08.16zm-11.4-.64l-1-.29.6-1.91c.31.09.62.19.93.27zm15.47-.31l-.61-1.91c.31-.09.62-.2.92-.31l.68 1.89zm-19.4-1.1c-.32-.14-.64-.29-.95-.45l.89-1.79c.29.15.58.28.88.42zm23.27-.47L62 73.47l.9-.47 1 1.75q-.5.25-.97.51zM36 73.74l-.86-.59 1.15-1.64c.26.19.53.37.8.55zm30.54-.62l-1.16-1.63.79-.57 1.21 1.59zM32.66 71.2c-.26-.23-.52-.46-.77-.71l1.39-1.44c.23.23.47.45.71.66zm37.08-.73L68.35 69l.68-.69 1.45 1.39c-.25.3-.48.53-.74.77zm-40-2.27c-.22-.27-.44-.54-.65-.82l1.59-1.21q.29.38.6.75zm42.76-.85l-1.59-1.22q.28-.37.57-.78l1.63 1.15c-.18.29-.38.57-.59.85zm-45.15-2.56c-.18-.3-.35-.6-.52-.91l1.76-1q.22.44.48.84zm47.44-1l-1.76-1c.16-.28.31-.57.45-.85l1.79.88q-.27.57-.48 1.02zM25.49 61c-.13-.32-.26-.65-.38-1l1.89-.61c.11.31.23.61.35.91zm51-1l-1.88-.68c.11-.31.21-.61.31-.92l1.91.6c-.1.37-.21.7-.33 1zm-52.28-3c-.08-.34-.15-.68-.22-1l2-.39c.07.32.13.64.21 1zm53.4-1l-2-.37c.06-.32.12-.64.17-1l2 .3zm-54-3.05c0-.34 0-.69-.06-1l2-.08c0 .32 0 .65.05 1zm54.5-1.1l-2-.07v-1.11h2v.1c-.01.38-.02.73-.03 1.07zm-52.54-2.94l-2-.14c0-.35.06-.7.1-1l2 .22q-.07.44-.1.92zm50.36-1.11c0-.32-.09-.64-.14-1l2-.31c0 .34.1.69.14 1zm-49.78-2.72l-1.95-.44c.08-.35.16-.68.25-1l1.93.53c-.08.29-.16.6-.23.91zm49-1.08c-.09-.31-.18-.62-.28-.93l1.9-.61c.11.33.21.67.3 1zm-47.84-2.61l-1.86-.74c.13-.33.27-.65.41-1l1.82.82c-.13.32-.25.62-.37.92zm46.55-1l-.42-.87 1.79-.89.45.94zM29 37.92l-1.72-1c.18-.3.36-.6.55-.89l1.68 1.08c-.16.25-.33.53-.51.81zm43-1c-.17-.27-.36-.53-.54-.8L73.08 35c.2.28.4.57.59.86zm-40.76-2.18l-1.54-1.26c.22-.27.45-.54.68-.8L31.87 34zm38.39-.83c-.21-.25-.43-.48-.66-.71l1.44-1.4c.24.25.48.51.71.77zM33.92 32l-1.33-1.49c.26-.23.52-.46.79-.68l1.28 1.54c-.25.15-.5.36-.74.63zm32.91-.72c-.25-.21-.5-.41-.76-.6L67.28 29c.28.21.55.43.82.65zM37 29.59l-1.1-1.67.89-.56 1 1.72zM63.66 29q-.42-.26-.84-.48l1-1.76.91.52zm-23.27-1.27l-.83-1.82 1-.41.75 1.85zm19.8-.43l-.91-.3.72-1.93 1 .37zM44 26.42l-.53-1.93 1-.26.53 1.94zm12.47-.28l-1-.2.37-2c.35.06.69.13 1 .21zm-8.67-.47l-.23-2c.34-.05.69-.08 1-.11l.16 2c-.27.04-.59.07-.91.11zm4.84-.1c-.32 0-.64-.05-1-.06l.07-2 1.05.06z"/></g></g></svg>
