<svg xmlns="http://www.w3.org/2000/svg" viewBox="0 0 93.8 93.8"><defs><style>.cls-1{fill:#d1d3d4}.cls-2{fill:#00acb3}.cls-3{fill:#d84774}.cls-4{fill:#feca7a}.cls-5{fill:#f9fbfc}</style></defs><g id="Layer_2" data-name="Layer 2"><g id="OBJECTS"><path class="cls-1" d="M16.05 1h.5v91.8h-.5zM31.35 1h.5v91.8h-.5zM46.65 1h.5v91.8h-.5zM61.95 1h.5v91.8h-.5zM77.25 1h.5v91.8h-.5z"/><path class="cls-1" d="M1 16.05h91.8v.5H1zM1 31.35h91.8v.5H1zM1 46.65h91.8v.5H1zM1 61.95h91.8v.5H1zM1 77.25h91.8v.5H1z"/><path class="cls-1" d="M93.8 93.8H0V0h93.8zM2 91.8h89.8V2H2z"/><g><path class="cls-2" transform="rotate(-45.76 51.9341552 45.32442119)" d="M46.12 44.57h11.63v1.5H46.12z"/><path class="cls-2" d="M13.67 75.95l-.64-.4-.59-.45.03-.04 14.33-19.8 1.21.88-14.34 19.81z"/><path class="cls-2" transform="rotate(-5.72 37.51869554 52.34237214)" d="M32.12 51.64h10.82v1.5H32.12z"/><path class="cls-2" d="M70.09 49.05l-9.71-7.54.92-1.18 8.67 6.72 14.18-14.01 1.05 1.06-15.11 14.95zM11.36 81.55A3.67 3.67 0 1 1 15 77.88a3.67 3.67 0 0 1-3.64 3.67zm0-5.83a2.17 2.17 0 1 0 2.17 2.16 2.16 2.16 0 0 0-2.17-2.16zM29.28 57.13A3.67 3.67 0 1 1 33 53.47a3.67 3.67 0 0 1-3.72 3.66zm0-5.83a2.17 2.17 0 1 0 2.17 2.17 2.17 2.17 0 0 0-2.17-2.17zM45.81 55.22a3.67 3.67 0 1 1 3.67-3.67 3.68 3.68 0 0 1-3.67 3.67zm0-5.84A2.17 2.17 0 1 0 48 51.55a2.17 2.17 0 0 0-2.19-2.17z"/><path class="cls-2" d="M58.33 43.09A3.67 3.67 0 1 1 62 39.43a3.66 3.66 0 0 1-3.67 3.66zm0-5.83a2.17 2.17 0 1 0 2.17 2.17 2.17 2.17 0 0 0-2.17-2.17zM86.71 35.16a3.67 3.67 0 1 1 3.67-3.67 3.66 3.66 0 0 1-3.67 3.67zm0-5.83a2.17 2.17 0 1 0 2.17 2.16 2.16 2.16 0 0 0-2.17-2.16z"/></g><g><path class="cls-3" d="M76.82 61.27a3.67 3.67 0 1 1 3.66-3.67 3.67 3.67 0 0 1-3.66 3.67zm0-5.83A2.17 2.17 0 1 0 79 57.6a2.17 2.17 0 0 0-2.18-2.16zM59.84 71.36a3.67 3.67 0 1 1 3.67-3.66 3.67 3.67 0 0 1-3.67 3.66zm0-5.83A2.17 2.17 0 1 0 62 67.7a2.17 2.17 0 0 0-2.16-2.17zM30.13 87.26a3.67 3.67 0 1 1 3.67-3.67 3.66 3.66 0 0 1-3.67 3.67zm0-5.83a2.17 2.17 0 1 0 2.17 2.16 2.16 2.16 0 0 0-2.17-2.16zM44.46 70.05A3.57 3.57 0 0 1 42 69a3.71 3.71 0 0 1-1.11-2.64 3.66 3.66 0 0 1 3.66-3.67 3.7 3.7 0 0 1 3.67 3.66A3.63 3.63 0 0 1 44.53 70zm0-5.84a2.17 2.17 0 0 0-2.16 2.17A2.22 2.22 0 0 0 43 68a2.18 2.18 0 0 0 3.67-1.56 2.18 2.18 0 0 0-2.16-2.23z"/><path class="cls-3" transform="rotate(-50.34 37.309389 74.98571129)" d="M29.01 74.24H45.6v1.5H29.01z"/><path class="cls-3" d="M62.86 67.13l-.75-1.3 12.29-7.06.74 1.31-.16.09-12.12 6.96z"/><path class="cls-3" transform="rotate(-84.06 52.17213373 67.11334314)" d="M51.43 62.33h1.5v9.56h-1.5z"/></g><path class="cls-4" d="M10.27 56.58l-1.34-.68 16.1-31.99 15.34 3.88 16.48-7.13 14.01 3.29 13.28-13.53 1.07 1.05-13.88 14.14-14.34-3.38-16.5 7.14-14.66-3.71-15.56 30.92z"/><g><path class="cls-5" d="M12.51 56.24a2.92 2.92 0 1 1-2.91-2.92 2.91 2.91 0 0 1 2.91 2.92z"/><path class="cls-4" d="M9.6 59.91a3.67 3.67 0 1 1 3.66-3.67 3.67 3.67 0 0 1-3.66 3.67zm0-5.84a2.17 2.17 0 1 0 2.16 2.17 2.17 2.17 0 0 0-2.16-2.17z"/></g><g><path class="cls-5" d="M28.35 24.78a2.92 2.92 0 1 1-2.92-2.92 2.92 2.92 0 0 1 2.92 2.92z"/><path class="cls-4" d="M25.43 28.45a3.67 3.67 0 1 1 3.67-3.67 3.68 3.68 0 0 1-3.67 3.67zm0-5.84a2.17 2.17 0 1 0 2.17 2.17 2.17 2.17 0 0 0-2.17-2.17z"/></g><g><path class="cls-5" d="M43.35 28.58a2.92 2.92 0 1 1-2.92-2.92 2.91 2.91 0 0 1 2.92 2.92z"/><path class="cls-4" d="M40.43 32.24a3.67 3.67 0 1 1 3.67-3.66 3.67 3.67 0 0 1-3.67 3.66zm0-5.83a2.17 2.17 0 1 0 2.17 2.17 2.17 2.17 0 0 0-2.17-2.17z"/></g><g><path class="cls-5" d="M59.84 21.45a2.92 2.92 0 1 1-2.92-2.92 2.91 2.91 0 0 1 2.92 2.92z"/><path class="cls-4" d="M56.92 25.11a3.67 3.67 0 1 1 3.67-3.66 3.66 3.66 0 0 1-3.67 3.66zm0-5.83a2.17 2.17 0 1 0 2.17 2.17 2.17 2.17 0 0 0-2.17-2.17z"/></g><g><path class="cls-5" d="M74 24.78a2.92 2.92 0 1 1-2.91-2.92A2.91 2.91 0 0 1 74 24.78z"/><path class="cls-4" d="M71.1 28.45a3.67 3.67 0 1 1 3.66-3.67 3.67 3.67 0 0 1-3.66 3.67zm0-5.84a2.17 2.17 0 1 0 2.16 2.17 2.17 2.17 0 0 0-2.16-2.17z"/></g><g><path class="cls-5" d="M87.59 11.24a2.92 2.92 0 1 1-2.92-2.92 2.92 2.92 0 0 1 2.92 2.92z"/><path class="cls-4" d="M84.67 14.91a3.67 3.67 0 1 1 3.67-3.67 3.67 3.67 0 0 1-3.67 3.67zm0-5.84a2.17 2.17 0 1 0 2.17 2.17 2.17 2.17 0 0 0-2.17-2.17z"/></g><g><path class="cls-5" d="M73 48.05a2.92 2.92 0 1 1-3-2.92 2.92 2.92 0 0 1 3 2.92z"/><path class="cls-2" d="M70 51.72a3.67 3.67 0 1 1 3.67-3.67A3.67 3.67 0 0 1 70 51.72zm0-5.84a2.17 2.17 0 1 0 2.17 2.17A2.17 2.17 0 0 0 70 45.88z"/></g></g></g></svg>
