<svg xmlns="http://www.w3.org/2000/svg" viewBox="0 0 108.49 93.3"><defs><style>.cls-1{fill:#e6e7e8}</style></defs><g id="Layer_2" data-name="Layer 2"><g id="OBJECTS"><path class="cls-1" d="M108.24 1.26H.25a.25.25 0 0 1 0-.5h108a.25.25 0 0 1 0 .5zM108.24 12.12H.25a.25.25 0 0 1 0-.5h108a.25.25 0 0 1 0 .5zM108.24 23H.25a.25.25 0 0 1-.25-.27.25.25 0 0 1 .25-.25h108a.25.25 0 0 1 .25.25.25.25 0 0 1-.26.27zM108.24 33.83H.25a.25.25 0 0 1-.25-.25.25.25 0 0 1 .25-.25h108a.25.25 0 0 1 .25.25.25.25 0 0 1-.26.25zM108.24 44.69H.25a.25.25 0 0 1 0-.5h108a.25.25 0 1 1 0 .5zM108.24 55.55H.25A.25.25 0 0 1 0 55.3a.25.25 0 0 1 .25-.25h108a.25.25 0 0 1 .25.25.25.25 0 0 1-.26.25zM108.24 66.4H.25a.25.25 0 0 1-.25-.25.25.25 0 0 1 .25-.25h108a.25.25 0 0 1 .25.25.25.25 0 0 1-.26.25zM108.24 77.26H.25a.25.25 0 0 1 0-.5h108a.25.25 0 0 1 0 .5z"/><path class="cls-1" d="M18.82 93.3a.26.26 0 0 1-.25-.25V1.32a.25.25 0 0 1 .25-.25.25.25 0 0 1 .25.25v91.73a.25.25 0 0 1-.25.25zM30.25 93.3a.25.25 0 0 1-.25-.25V1.32a.25.25 0 0 1 .5 0v91.73a.25.25 0 0 1-.25.25zM41.68 93.3a.25.25 0 0 1-.25-.25V1.32a.25.25 0 0 1 .5 0v91.73a.25.25 0 0 1-.25.25zM53.1 93.3a.26.26 0 0 1-.25-.25V1.32a.25.25 0 0 1 .25-.25.25.25 0 0 1 .25.25v91.73a.25.25 0 0 1-.25.25zM64.53 93.3a.25.25 0 0 1-.25-.25V1.32a.25.25 0 1 1 .5 0v91.73a.25.25 0 0 1-.25.25zM76 93.3a.25.25 0 0 1-.25-.25V1.32a.25.25 0 1 1 .5 0v91.73a.25.25 0 0 1-.25.25zM87.38 93.3a.26.26 0 0 1-.25-.25V1.32a.25.25 0 0 1 .25-.25.25.25 0 0 1 .25.25v91.73a.25.25 0 0 1-.25.25zM98.81 93.3a.25.25 0 0 1-.25-.25V1.32a.25.25 0 1 1 .5 0v91.73a.25.25 0 0 1-.25.25z"/><path fill="#16d8d8" d="M13.34 15.16h13.02v72.98H13.34z"/><path fill="#feca7a" d="M26.36 30.59h13.02v57.55H26.36z"/><path fill="#d84774" d="M44.83 29.05h13.02v59.09H44.83z"/><path fill="#00acb3" d="M57.85 41.54h13.02v46.6H57.85z"/><path fill="#f79663" d="M78.33 29.05h13.02v59.09H78.33z"/><path fill="#f24c88" d="M91.35 20.46h13.02v67.68H91.35z"/><path fill="#d1d3d4" d="M108.26 89.64H3.77V0h3v86.64h101.49v3z"/></g></g></svg>
