<svg xmlns="http://www.w3.org/2000/svg" viewBox="0 0 120.82 76.26"><defs><style>.cls-7{fill:#d1d3d4}</style></defs><g id="Layer_2" data-name="Layer 2"><g id="OBJECTS"><path fill="#feca7a" d="M108.62 25.26h12.2v50.99h-12.2z"/><path fill="#d84774" d="M67.17 49.1h12.2v27.16h-12.2z"/><path fill="#16d8d8" d="M46.44 58.31h12.2v17.94h-12.2z"/><path fill="#f24c88" d="M25.71 64.61h12.2v11.65h-12.2z"/><path fill="#00acb3" d="M4.99 68.46h12.2v7.79H4.99z"/><path fill="#f79663" d="M87.89 38.37h12.2v37.89h-12.2z"/><path class="cls-7" d="M1.19 60.87H0l.12-3.14c.15 0 15.28.48 36.73-5.84C56.63 46.05 86 33.09 113.59 4.43l2.26 2.18C87.75 35.82 57.79 49 37.6 54.93c-18.69 5.48-32.39 5.94-36.41 5.94z"/><path class="cls-7" d="M120.68 0l-15.93 3.31 12.62 12.62L120.68 0z"/></g></g></svg>
