<svg xmlns="http://www.w3.org/2000/svg" viewBox="0 0 90.67 76.32"><defs><style>.cls-1{fill:#f79663}.cls-2{fill:#00acb3}</style></defs><g id="Layer_2" data-name="Layer 2"><g id="OBJECTS"><path class="cls-1" d="M0 33.59h5.67v14.24H0zM11.33 19.35H17v28.49h-5.67z"/><path class="cls-2" d="M5.67 47.83h5.67V61H5.67zM17 47.83h5.67V65H17z"/><g><path class="cls-1" d="M22.67 11.54h5.67v36.29h-5.67zM34 19.35h5.67v28.49H34z"/><path class="cls-2" d="M28.33 47.83H34v28.49h-5.67zM39.67 47.83h5.67V71.5h-5.67z"/></g><g><path class="cls-1" d="M45.33 0H51v47.83h-5.67zM56.67 8h5.67v39.83h-5.67z"/><path class="cls-2" d="M51 47.83h5.67V65H51zM62.33 47.83H68v10.58h-5.67z"/></g><g><path class="cls-1" d="M68 15h5.67v32.83H68zM79.33 31.49H85v16.35h-5.67z"/><path class="cls-2" d="M73.67 47.83h5.67v14.74h-5.67zM85 47.83h5.67v5.29H85z"/></g></g></g></svg>
